<?xml version="1.0" encoding="UTF-8"?>
<svg id="briefcase" xmlns="http://www.w3.org/2000/svg" viewBox="0 0 24 24">
  <defs>
    <style>
      .cls-1 {
        stroke-width: 0px;
      }
    </style>
  </defs>
  <path class="cls-1" d="m21.75,9.97c-.01-1.5-1.24-2.72-2.75-2.72h-2.25v-1.25c0-1.52-1.23-2.75-2.75-2.75h-4c-1.52,0-2.75,1.23-2.75,2.75v1.25h-2.25c-1.51,0-2.73,1.22-2.75,2.72,0,0,0,.01,0,.02,0,0,0,0,0,0v6c0,2.62,2.13,4.75,4.75,4.75h10c2.62,0,4.75-2.13,4.75-4.75v-6s0,0,0,0c0,0,0-.01,0-.02Zm-13-3.97c0-.69.56-1.25,1.25-1.25h4c.69,0,1.25.56,1.25,1.25v1.25h-6.5v-1.25Zm-3.75,2.75h14c.53,0,.98.34,1.16.8l-7.44,3.31c-.07-.34-.36-.61-.72-.61s-.65.26-.72.61l-7.44-3.31c.18-.47.63-.8,1.16-.8Zm12,10.5H7c-1.79,0-3.25-1.46-3.25-3.25v-4.85l7.5,3.33v.51c0,.41.34.75.75.75s.75-.34.75-.75v-.51l7.5-3.33v4.85c0,1.79-1.46,3.25-3.25,3.25Z"/>
</svg>