<?xml version="1.0" encoding="UTF-8"?>
<svg id="contract" xmlns="http://www.w3.org/2000/svg" viewBox="0 0 24 24">
  <defs>
    <style>
      .cls-1 {
        stroke-width: 0px;
      }
    </style>
  </defs>
  <path class="cls-1" d="m15,20.25H6c-1.24,0-2.25-1.01-2.25-2.25V6c0-1.24,1.01-2.25,2.25-2.25h5.25v3.25c0,.96.79,1.75,1.75,1.75h4s.02,0,.03,0c0,0,.02,0,.02,0,.03,0,.06-.02.09-.02.07-.01.13-.03.19-.05.02,0,.03-.02.05-.03.07-.04.13-.09.19-.15,0,0,0,0,0-.01.06-.07.1-.15.13-.24,0,0,0,0,0,0,.03-.07.05-.15.05-.23,0-.03-.01-.05-.02-.08-.07-.88-.46-1.71-1.08-2.33l-2.24-2.24c-.6-.6-1.36-.95-2.18-1.05-.07-.02-.15-.05-.23-.05-.03,0-.05.01-.08.02-.06,0-.11-.02-.16-.02h-5.76c-2.07,0-3.75,1.68-3.75,3.75v12c0,2.07,1.68,3.75,3.75,3.75h9c.41,0,.75-.34.75-.75s-.34-.75-.75-.75Zm.59-13.6c.18.18.32.38.42.6h-3.01c-.14,0-.25-.11-.25-.25v-3.01c.22.11.42.24.6.42l2.24,2.24Z"/>
  <path class="cls-1" d="m21.31,9.69c-1.04-1.04-2.85-1.04-3.89,0l-3.81,3.81c-.38.38-.65.87-.75,1.41l-.59,2.94c-.05.25.03.5.21.68.14.14.33.22.53.22.05,0,.1,0,.15-.01l2.94-.59h0c.53-.11,1.02-.37,1.4-.75l3.81-3.81c.52-.52.81-1.21.81-1.94s-.29-1.42-.81-1.94Zm-1.06,2.83l-3.81,3.81c-.17.17-.4.29-.64.34l-1.84.37.37-1.84c.05-.24.17-.46.34-.64l3.81-3.81c.24-.24.55-.37.88-.37s.65.13.88.37.37.55.37.88-.13.65-.37.88Z"/>
  <path class="cls-1" d="m6,8.75h3c.41,0,.75-.34.75-.75s-.34-.75-.75-.75h-3c-.41,0-.75.34-.75.75s.34.75.75.75Z"/>
  <path class="cls-1" d="m11,11.25h-5c-.41,0-.75.34-.75.75s.34.75.75.75h5c.41,0,.75-.34.75-.75s-.34-.75-.75-.75Z"/>
  <path class="cls-1" d="m11,15.25h-5c-.41,0-.75.34-.75.75s.34.75.75.75h5c.41,0,.75-.34.75-.75s-.34-.75-.75-.75Z"/>
</svg>