<?xml version="1.0" encoding="UTF-8"?>
<svg id="evidence" xmlns="http://www.w3.org/2000/svg" viewBox="0 0 24 24">
  <defs>
    <style>
      .cls-1 {
        stroke-width: 0px;
      }
    </style>
  </defs>
  <path class="cls-1" d="m9,18.75h3c.96,0,1.75-.79,1.75-1.75v-1c0-.96-.79-1.75-1.75-1.75h-3c-.96,0-1.75.79-1.75,1.75v1c0,.96.79,1.75,1.75,1.75Zm-.25-2.75c0-.14.11-.25.25-.25h3c.14,0,.25.11.25.25v1c0,.14-.11.25-.25.25h-3c-.14,0-.25-.11-.25-.25v-1Z"/>
  <path class="cls-1" d="m21,5.25h-1.25v-1.25c0-.96-.79-1.75-1.75-1.75H6c-.96,0-1.75.79-1.75,1.75v1.25h-1.25c-.41,0-.75.34-.75.75s.34.75.75.75h1.25v11.25c0,2.07,1.68,3.75,3.75,3.75h8c2.07,0,3.75-1.68,3.75-3.75V6.75h1.25c.41,0,.75-.34.75-.75s-.34-.75-.75-.75Zm-15.25-1.25c0-.14.11-.25.25-.25h12c.14,0,.25.11.25.25v1.25H5.75v-1.25Zm12.5,14c0,1.24-1.01,2.25-2.25,2.25h-8c-1.24,0-2.25-1.01-2.25-2.25V6.75h12.5v11.25Z"/>
</svg>