<?xml version="1.0" encoding="UTF-8"?>
<svg id="folder" xmlns="http://www.w3.org/2000/svg" viewBox="0 0 24 24">
  <defs>
    <style>
      .cls-1 {
        stroke-width: 0px;
      }
    </style>
  </defs>
  <path class="cls-1" d="m8,3.25h-3c-1.52,0-2.75,1.23-2.75,2.75v11c0,1.52,1.23,2.75,2.75,2.75h3c1.52,0,2.75-1.23,2.75-2.75V6c0-1.52-1.23-2.75-2.75-2.75Zm1.25,13.75c0,.69-.56,1.25-1.25,1.25h-3c-.69,0-1.25-.56-1.25-1.25V6c0-.69.56-1.25,1.25-1.25h3c.69,0,1.25.56,1.25,1.25v11Z"/>
  <path class="cls-1" d="m19,3.25h-3c-1.52,0-2.75,1.23-2.75,2.75v11c0,1.52,1.23,2.75,2.75,2.75h3c1.52,0,2.75-1.23,2.75-2.75V6c0-1.52-1.23-2.75-2.75-2.75Zm1.25,13.75c0,.69-.56,1.25-1.25,1.25h-3c-.69,0-1.25-.56-1.25-1.25V6c0-.69.56-1.25,1.25-1.25h3c.69,0,1.25.56,1.25,1.25v11Z"/>
  <path class="cls-1" d="m17.5,5.25c-1.24,0-2.25,1.01-2.25,2.25s1.01,2.25,2.25,2.25,2.25-1.01,2.25-2.25-1.01-2.25-2.25-2.25Zm0,3c-.41,0-.75-.34-.75-.75s.34-.75.75-.75.75.34.75.75-.34.75-.75.75Z"/>
  <path class="cls-1" d="m6.5,5.25c-1.24,0-2.25,1.01-2.25,2.25s1.01,2.25,2.25,2.25,2.25-1.01,2.25-2.25-1.01-2.25-2.25-2.25Zm0,3c-.41,0-.75-.34-.75-.75s.34-.75.75-.75.75.34.75.75-.34.75-.75.75Z"/>
  <path class="cls-1" d="m6.5,11.25c-.41,0-.75.34-.75.75v4c0,.41.34.75.75.75s.75-.34.75-.75v-4c0-.41-.34-.75-.75-.75Z"/>
  <path class="cls-1" d="m17.5,10.25c-.41,0-.75.34-.75.75v4c0,.41.34.75.75.75s.75-.34.75-.75v-4c0-.41-.34-.75-.75-.75Z"/>
</svg>