<?xml version="1.0" encoding="UTF-8"?>
<svg id="gavel" xmlns="http://www.w3.org/2000/svg" viewBox="0 0 24 24">
  <defs>
    <style>
      .cls-1 {
        stroke-width: 0px;
      }
    </style>
  </defs>
  <path class="cls-1" d="m12.14,15.52l-.21.14c-.34.23-.44.7-.21,1.04.14.22.38.33.62.33.14,0,.29-.04.42-.13l.83-.55h0s2.49-1.67,2.49-1.67l3.33-2.22c.34-.23.44-.7.21-1.04-.23-.34-.7-.44-1.04-.21l-.21.14-5.07-7.59.21-.14c.34-.23.44-.7.21-1.04-.23-.34-.7-.44-1.04-.21l-.83.55s0,0,0,0l-2.49,1.67-3.33,2.22c-.34.23-.44.7-.21,1.04.14.22.38.33.62.33.14,0,.29-.04.42-.13l.21-.14,1.13,1.7-5.07,3.39c-1.16.77-1.47,2.34-.7,3.5t0,0c.49.73,1.29,1.12,2.1,1.12.48,0,.97-.14,1.4-.42l5.07-3.39,1.13,1.7Zm-.08-10.92l5.07,7.59-1.87,1.25-1.87,1.25-1.55-2.32s0,0,0,0l-1.97-2.95s0,0,0,0l-1.55-2.32,1.87-1.25,1.87-1.25Zm-6.96,11.36c-.47.31-1.1.19-1.42-.28s-.19-1.1.28-1.42l5.07-3.39,1.13,1.7-5.07,3.39Z"/>
  <path class="cls-1" d="m19,17.25h-5c-1.52,0-2.75,1.23-2.75,2.75,0,.96.79,1.75,1.75,1.75h7c.96,0,1.75-.79,1.75-1.75,0-1.52-1.23-2.75-2.75-2.75Zm1,3h-7c-.14,0-.25-.11-.25-.25,0-.69.56-1.25,1.25-1.25h5c.69,0,1.25.56,1.25,1.25,0,.14-.11.25-.25.25Z"/>
</svg>