<?xml version="1.0" encoding="UTF-8"?>
<svg id="handshake" xmlns="http://www.w3.org/2000/svg" viewBox="0 0 24 24">
  <defs>
    <style>
      .cls-1 {
        stroke-width: 0px;
      }
    </style>
  </defs>
  <path class="cls-1" d="m21,13.25h-2.17c-.41,0-.81-.11-1.16-.32l-3.57-2.14c-.58-.35-1.25-.54-1.93-.54h-3.07c-.19,0-.35-.16-.35-.35,0-.17.12-.31.28-.34l3.73-.75c.21-.04.42-.06.64-.06h7.6c.41,0,.75-.34.75-.75s-.34-.75-.75-.75h-5.29c.02-.11.04-.23.04-.35,0-.88-.62-1.64-1.49-1.81l-2.49-.5c-1.23-.24-2.53.01-3.57.71l-.59.39c-.55.37-1.2.56-1.86.56h-2.76c-.41,0-.75.34-.75.75s.34.75.75.75h2.76c.96,0,1.89-.28,2.69-.82l.59-.39c.71-.47,1.6-.65,2.44-.48l2.49.5c.16.03.28.18.28.34,0,.19-.16.35-.35.35h-.9c-.11,0-.21.03-.31.07-.08.01-.15,0-.23.02l-3.73.75c-.86.17-1.49.93-1.49,1.81,0,1.02.83,1.85,1.85,1.85h3.07c.41,0,.81.11,1.16.32l3.42,2.05c.03.07.03.18-.06.27-.35.37-.73.71-1.14,1.01-.51.38-1.06.72-1.65.99-1.42.67-3.16.42-4.42-.63l-2.86-2.38c-.87-.73-1.98-1.13-3.11-1.13h-.51c-.41,0-.75.34-.75.75s.34.75.75.75h.51c.54,0,1.06.14,1.54.38-.18.34-.29.73-.3,1.13,0,.74.3,1.43.86,1.91l1.47,1.26c.47.4,1.04.61,1.62.61s1.13-.2,1.6-.59l.48-.4c.47.12.96.21,1.44.21.79,0,1.59-.17,2.32-.51.67-.32,1.32-.7,1.91-1.15.47-.36.92-.75,1.32-1.18.2-.21.33-.47.4-.74.22.04.43.06.65.06h2.17c.41,0,.75-.34.75-.75s-.34-.75-.75-.75Zm-12.94,4.05l-1.47-1.27c-.22-.19-.34-.46-.34-.76,0-.08.03-.15.05-.22l2.22,1.85c.22.18.45.33.68.47-.36.22-.82.2-1.14-.08Z"/>
</svg>