<?xml version="1.0" encoding="UTF-8"?>
<svg id="jury" xmlns="http://www.w3.org/2000/svg" viewBox="0 0 24 24">
  <defs>
    <style>
      .cls-1 {
        stroke-width: 0px;
      }
    </style>
  </defs>
  <path class="cls-1" d="m20.75,11.43v-.93c0-1.79-1.46-3.25-3.25-3.25-1.01,0-1.9.47-2.5,1.2-.6-.73-1.49-1.2-2.5-1.2s-1.9.47-2.5,1.2c-.6-.73-1.49-1.2-2.5-1.2-1.79,0-3.25,1.46-3.25,3.25v.93c-.59.28-1,.88-1,1.57v6c0,.96.79,1.75,1.75,1.75h15c.96,0,1.75-.79,1.75-1.75v-6c0-.7-.41-1.29-1-1.57Zm-3.25-2.68c.96,0,1.75.79,1.75,1.75v.75h-3.5v-.75c0-.96.79-1.75,1.75-1.75Zm-5,0c.96,0,1.75.79,1.75,1.75v.75h-3.5v-.75c0-.96.79-1.75,1.75-1.75Zm-6.75,1.75c0-.96.79-1.75,1.75-1.75s1.75.79,1.75,1.75v.75h-3.5v-.75Zm14.5,8.5c0,.14-.11.25-.25.25H5c-.14,0-.25-.11-.25-.25v-6c0-.14.11-.25.25-.25h15c.14,0,.25.11.25.25v6Z"/>
  <path class="cls-1" d="m12.5,6.75c1.24,0,2.25-1.01,2.25-2.25s-1.01-2.25-2.25-2.25-2.25,1.01-2.25,2.25,1.01,2.25,2.25,2.25Zm0-3c.41,0,.75.34.75.75s-.34.75-.75.75-.75-.34-.75-.75.34-.75.75-.75Z"/>
  <path class="cls-1" d="m17.5,6.75c1.24,0,2.25-1.01,2.25-2.25s-1.01-2.25-2.25-2.25-2.25,1.01-2.25,2.25,1.01,2.25,2.25,2.25Zm0-3c.41,0,.75.34.75.75s-.34.75-.75.75-.75-.34-.75-.75.34-.75.75-.75Z"/>
  <path class="cls-1" d="m7.5,6.75c1.24,0,2.25-1.01,2.25-2.25s-1.01-2.25-2.25-2.25-2.25,1.01-2.25,2.25,1.01,2.25,2.25,2.25Zm0-3c.41,0,.75.34.75.75s-.34.75-.75.75-.75-.34-.75-.75.34-.75.75-.75Z"/>
  <path class="cls-1" d="m16,14.25h-7c-.96,0-1.75.79-1.75,1.75s.79,1.75,1.75,1.75h7c.96,0,1.75-.79,1.75-1.75s-.79-1.75-1.75-1.75Zm0,2h-7c-.14,0-.25-.11-.25-.25s.11-.25.25-.25h7c.14,0,.25.11.25.25s-.11.25-.25.25Z"/>
</svg>