<?xml version="1.0" encoding="UTF-8"?>
<svg id="law" xmlns="http://www.w3.org/2000/svg" viewBox="0 0 24 24">
  <defs>
    <style>
      .cls-1 {
        stroke-width: 0px;
      }
    </style>
  </defs>
  <path class="cls-1" d="m20.75,8.03c.07-1.54-.2-3.11-.79-4.67-.25-.67-.91-1.11-1.64-1.11H6.44c-.56,0-1.07.26-1.4.71-.33.45-.42,1.04-.26,1.57.36,1.15.52,2.31.47,3.43-.07,1.52-.5,2.61-.95,3.76-.48,1.21-.97,2.47-1.05,4.24-.07,1.54.2,3.11.79,4.67.25.67.91,1.11,1.64,1.11h11.89c.56,0,1.07-.26,1.4-.71.33-.45.42-1.04.26-1.57-.36-1.15-.52-2.31-.47-3.43.07-1.53.5-2.61.95-3.76.48-1.21.97-2.47,1.05-4.24Zm-2.45,3.69c-.48,1.21-.97,2.47-1.05,4.24-.06,1.3.12,2.63.54,3.95.04.11,0,.19-.04.23-.03.04-.09.1-.19.1H5.68c-.1,0-.2-.06-.23-.15-.52-1.37-.75-2.74-.69-4.07.07-1.53.5-2.61.95-3.76.48-1.21.97-2.47,1.05-4.24.06-1.3-.12-2.63-.54-3.95-.04-.11,0-.19.04-.23.03-.04.09-.1.19-.1h11.89c.1,0,.2.06.23.15.52,1.37.75,2.74.69,4.07-.07,1.52-.5,2.61-.95,3.76Z"/>
  <path class="cls-1" d="m15,7.25h-5c-.41,0-.75.34-.75.75s.34.75.75.75h5c.41,0,.75-.34.75-.75s-.34-.75-.75-.75Z"/>
  <path class="cls-1" d="m14,11.25h-5c-.41,0-.75.34-.75.75s.34.75.75.75h5c.41,0,.75-.34.75-.75s-.34-.75-.75-.75Z"/>
  <path class="cls-1" d="m14,15.25h-6c-.41,0-.75.34-.75.75s.34.75.75.75h6c.41,0,.75-.34.75-.75s-.34-.75-.75-.75Z"/>
</svg>