<?xml version="1.0" encoding="UTF-8"?>
<svg id="lawyer" xmlns="http://www.w3.org/2000/svg" viewBox="0 0 24 24">
  <defs>
    <style>
      .cls-1 {
        stroke-width: 0px;
      }
    </style>
  </defs>
  <path class="cls-1" d="m21.11,18.33l-.89-3.56c-.37-1.49-1.59-2.59-3.11-2.8l-3.55-.51c1.85-.65,3.19-2.4,3.19-4.47,0-2.62-2.13-4.75-4.75-4.75s-4.75,2.13-4.75,4.75c0,2.07,1.34,3.82,3.19,4.47l-3.55.51c-1.52.22-2.74,1.32-3.11,2.8l-.89,3.56c-.21.83-.02,1.69.5,2.36.53.67,1.32,1.06,2.17,1.06h12.88c.85,0,1.64-.39,2.17-1.06.52-.67.71-1.53.5-2.36Zm-11.69-1.36c.54.35,1.17.59,1.83.7v2.58h-3.14l1.31-3.27Zm3.33.7c.67-.11,1.29-.34,1.83-.7l1.31,3.27h-3.14v-2.58Zm-.75-1.42c-1.72,0-3.11-1.34-3.23-3.03l3.23-.46,3.23.46c-.12,1.69-1.51,3.03-3.23,3.03Zm-3.25-9.25c0-1.79,1.46-3.25,3.25-3.25s3.25,1.46,3.25,3.25-1.46,3.25-3.25,3.25-3.25-1.46-3.25-3.25Zm-4.17,12.77c-.24-.31-.32-.7-.23-1.07l.89-3.56c.22-.89.96-1.55,1.87-1.68l.19-.03c.08.92.42,1.75.95,2.44l-1.75,4.38h-.93c-.39,0-.75-.18-.99-.48Zm14.85,0c-.24.31-.6.48-.99.48h-.93l-1.75-4.38c.53-.69.87-1.53.95-2.44l.19.03c.91.13,1.64.79,1.86,1.68l.89,3.56c.09.38.01.77-.23,1.07Z"/>
</svg>