<?xml version="1.0" encoding="UTF-8"?>
<svg id="parchment" xmlns="http://www.w3.org/2000/svg" viewBox="0 0 24 24">
  <defs>
    <style>
      .cls-1 {
        stroke-width: 0px;
      }
    </style>
  </defs>
  <path class="cls-1" d="m19,4.25h-11c-1.52,0-2.75,1.23-2.75,2.75v8.25h-1.25c-.96,0-1.75.79-1.75,1.75v1c0,1.52,1.23,2.75,2.75,2.75h11c.96,0,1.75-.79,1.75-1.75v-9.25h2.25c.96,0,1.75-.79,1.75-1.75v-1c0-1.52-1.23-2.75-2.75-2.75Zm-14,15c-.69,0-1.25-.56-1.25-1.25v-1c0-.14.11-.25.25-.25h8c.14,0,.25.11.25.25v1c0,.45.11.88.3,1.25h-7.55Zm11.25-.25c0,.14-.11.25-.25.25h-1c-.69,0-1.25-.56-1.25-1.25v-1c0-.96-.79-1.75-1.75-1.75h-5.25V7c0-.69.56-1.25,1.25-1.25h8.56c-.19.38-.31.8-.31,1.25v12Zm4-11c0,.14-.11.25-.25.25h-2.25v-1.25c0-.69.56-1.25,1.25-1.25s1.25.56,1.25,1.25v1Z"/>
  <path class="cls-1" d="m14,8.25h-5c-.41,0-.75.34-.75.75s.34.75.75.75h5c.41,0,.75-.34.75-.75s-.34-.75-.75-.75Z"/>
  <path class="cls-1" d="m14,12.25h-5c-.41,0-.75.34-.75.75s.34.75.75.75h5c.41,0,.75-.34.75-.75s-.34-.75-.75-.75Z"/>
</svg>