<?xml version="1.0" encoding="UTF-8"?>
<svg id="pen" xmlns="http://www.w3.org/2000/svg" viewBox="0 0 24 24">
  <defs>
    <style>
      .cls-1 {
        stroke-width: 0px;
      }
    </style>
  </defs>
  <path class="cls-1" d="m18,3.25H6c-2.07,0-3.75,1.68-3.75,3.75s1.68,3.75,3.75,3.75h.5c1.24,0,2.25-1.01,2.25-2.25s-1.01-2.25-2.25-2.25c-.26,0-.51.04-.75.13-.39.14-.59.57-.46.96.14.39.57.6.96.46.46-.16,1,.21,1,.71,0,.41-.34.75-.75.75h-.5c-1.24,0-2.25-1.01-2.25-2.25s1.01-2.25,2.25-2.25h3.25v6.25s0,.02,0,.04c0,.01,0,.03,0,.04.08.76.08,2.23-.85,3.47-.09.12-.19.23-.28.34-.61.66-.66,1.64-.12,2.32l3.41,4.26s.02.01.03.02c.05.05.11.1.17.14.03.02.05.04.08.05.09.04.2.07.31.07s.21-.03.31-.07c.03-.01.05-.04.08-.05.06-.04.12-.08.17-.14,0,0,.02-.01.03-.02l3.41-4.26c.54-.68.5-1.66-.12-2.32-.09-.1-.19-.21-.28-.34-.93-1.24-.93-2.71-.85-3.47,0-.01,0-.03,0-.04,0-.01,0-.02,0-.04v-6.25h3.25c1.24,0,2.25,1.01,2.25,2.25s-1.01,2.25-2.25,2.25h-.5c-.41,0-.75-.34-.75-.75,0-.5.53-.87,1-.71.39.14.82-.07.96-.46.14-.39-.07-.82-.46-.96-.24-.09-.49-.13-.75-.13-1.24,0-2.25,1.01-2.25,2.25s1.01,2.25,2.25,2.25h.5c2.07,0,3.75-1.68,3.75-3.75s-1.68-3.75-3.75-3.75Zm-3.22,12.66c.09.09.14.25.04.36l-2.08,2.6v-2.86c0-.41-.34-.75-.75-.75s-.75.34-.75.75v2.86l-2.08-2.6c-.09-.11-.04-.27.04-.36.13-.14.26-.29.38-.46.95-1.27,1.17-2.67,1.18-3.7h2.43c0,1.03.24,2.43,1.18,3.7.12.17.25.32.38.46Zm-1.53-5.66h-2.5v-5.5h2.5v5.5Z"/>
</svg>