<?xml version="1.0" encoding="UTF-8"?>
<svg id="pillars" xmlns="http://www.w3.org/2000/svg" viewBox="0 0 24 24">
  <defs>
    <style>
      .cls-1 {
        stroke-width: 0px;
      }
    </style>
  </defs>
  <path class="cls-1" d="m21.75,7c0-2.62-2.13-4.75-4.75-4.75H7c-2.62,0-4.75,2.13-4.75,4.75,0,2,1.25,3.71,3,4.41v7.59c0,1.52,1.23,2.75,2.75,2.75h8c1.52,0,2.75-1.23,2.75-2.75v-7.59c1.75-.7,3-2.41,3-4.41Zm-8.5,13.25h-2.5v-3.25c0-.69.56-1.25,1.25-1.25s1.25.56,1.25,1.25v3.25Zm4-1.25c0,.69-.56,1.25-1.25,1.25h-1.25v-3.25c0-1.52-1.23-2.75-2.75-2.75s-2.75,1.23-2.75,2.75v3.25h-1.25c-.69,0-1.25-.56-1.25-1.25v-7.28c.08,0,.16.03.25.03h1.36c1.73,0,3.21-1.28,3.38-2.92,0-.03,0-.05,0-.08h.55c.05.63.26,1.23.65,1.74.62.8,1.56,1.26,2.57,1.26h1.5c.09,0,.17-.02.25-.03v7.28Zm-.25-8.75h-1.5c-.55,0-1.05-.25-1.38-.68-.34-.44-.45-.99-.3-1.55.15-.57.63-1.06,1.21-1.21.72-.19,1.44.06,1.88.64.25.33.72.4,1.05.15.33-.25.4-.72.15-1.05-.8-1.06-2.16-1.53-3.45-1.19-.97.25-1.78.97-2.15,1.89h-1.01c-.14-.34-.32-.66-.57-.93-.62-.68-1.49-1.07-2.41-1.07-1.03,0-1.98.47-2.6,1.3-.25.33-.18.8.15,1.05.33.25.8.18,1.05-.15.63-.84,1.99-.9,2.7-.12.34.37.49.85.44,1.36-.09.88-.92,1.57-1.88,1.57h-1.36c-1.79,0-3.25-1.46-3.25-3.25s1.46-3.25,3.25-3.25h10c1.79,0,3.25,1.46,3.25,3.25s-1.46,3.25-3.25,3.25Z"/>
</svg>