<?xml version="1.0" encoding="UTF-8"?>
<svg id="research" xmlns="http://www.w3.org/2000/svg" viewBox="0 0 24 24">
  <defs>
    <style>
      .cls-1 {
        stroke-width: 0px;
      }
    </style>
  </defs>
  <path class="cls-1" d="m8,8.25h-2c-.41,0-.75.34-.75.75s.34.75.75.75h2c.41,0,.75-.34.75-.75s-.34-.75-.75-.75Z"/>
  <path class="cls-1" d="m8,11.25h-2c-.41,0-.75.34-.75.75s.34.75.75.75h2c.41,0,.75-.34.75-.75s-.34-.75-.75-.75Z"/>
  <path class="cls-1" d="m16,5.75h1c.69,0,1.25.56,1.25,1.25v3c0,.41.34.75.75.75s.75-.34.75-.75v-3c0-1.52-1.23-2.75-2.75-2.75h-1c-2.14,0-4.01,1.18-5,2.92-.99-1.74-2.86-2.92-5-2.92h-1c-1.52,0-2.75,1.23-2.75,2.75v7c0,1.52,1.23,2.75,2.75,2.75h4c1.52,0,2.75-1.23,2.75-2.75v-4c0-2.34,1.91-4.25,4.25-4.25Zm-5.75,8.25c0,.69-.56,1.25-1.25,1.25h-4c-.69,0-1.25-.56-1.25-1.25v-7c0-.69.56-1.25,1.25-1.25h1c2.34,0,4.25,1.91,4.25,4.25v4Z"/>
  <path class="cls-1" d="m14,8.25c-.41,0-.75.34-.75.75s.34.75.75.75h2c.41,0,.75-.34.75-.75s-.34-.75-.75-.75h-2Z"/>
  <path class="cls-1" d="m21.53,19.39l-2.35-2.35c.96-1.46.8-3.44-.48-4.72-1.46-1.46-3.84-1.46-5.3,0-1.46,1.46-1.46,3.84,0,5.3.73.73,1.69,1.1,2.65,1.1.72,0,1.44-.21,2.07-.62l2.35,2.35c.15.15.34.22.53.22s.38-.07.53-.22c.29-.29.29-.77,0-1.06Zm-7.07-2.83c-.88-.88-.88-2.31,0-3.18.44-.44,1.01-.66,1.59-.66s1.15.22,1.59.66c.88.88.88,2.31,0,3.18-.88.88-2.31.88-3.18,0Z"/>
</svg>