<?xml version="1.0" encoding="UTF-8"?>
<svg id="balance" xmlns="http://www.w3.org/2000/svg" viewBox="0 0 24 24">
  <defs>
    <style>
      .cls-1 {
        stroke-width: 0px;
      }
    </style>
  </defs>
  <path class="cls-1" d="m21.73,9.91c0-.05-.01-.1-.03-.15-.02-.05-.04-.09-.07-.14-.01-.03-.02-.05-.04-.08l-3-4s-.02-.02-.03-.03c-.14-.16-.34-.27-.57-.27h-5.25v-2.25c0-.41-.34-.75-.75-.75s-.75.34-.75.75v2.25h-5.25c-.23,0-.43.11-.57.27,0,.01-.02.01-.03.03l-3,4s-.02.05-.04.08c-.03.04-.05.09-.07.14-.02.05-.02.1-.03.15,0,.03-.02.06-.02.09v1c0,2.07,1.68,3.75,3.75,3.75s3.75-1.68,3.75-3.75v-1s-.01-.06-.02-.09c0-.05-.01-.1-.03-.15-.02-.05-.04-.09-.07-.14-.01-.03-.02-.05-.04-.08l-2.1-2.8h3.75v10.5h-2.25c-1.52,0-2.75,1.23-2.75,2.75,0,.96.79,1.75,1.75,1.75h8c.96,0,1.75-.79,1.75-1.75,0-1.52-1.23-2.75-2.75-2.75h-2.25V6.75h3.75l-2.1,2.8s-.02.05-.04.08c-.03.04-.05.09-.07.14-.02.05-.02.1-.03.15,0,.03-.02.06-.02.09v1c0,2.07,1.68,3.75,3.75,3.75s3.75-1.68,3.75-3.75v-1s-.01-.06-.02-.09Zm-15.73-2.66l1.5,2h-3l1.5-2Zm2.25,3.75c0,1.24-1.01,2.25-2.25,2.25s-2.25-1.01-2.25-2.25v-.25h4.5v.25Zm8,9c0,.14-.11.25-.25.25h-8c-.14,0-.25-.11-.25-.25,0-.69.56-1.25,1.25-1.25h6c.69,0,1.25.56,1.25,1.25Zm3.25-10.75h-3l1.5-2,1.5,2Zm.75,1.75c0,1.24-1.01,2.25-2.25,2.25s-2.25-1.01-2.25-2.25v-.25h4.5v.25Z"/>
</svg>