<?xml version="1.0" encoding="UTF-8"?>
<svg id="baton" xmlns="http://www.w3.org/2000/svg" viewBox="0 0 24 24">
  <defs>
    <style>
      .cls-1 {
        stroke-width: 0px;
      }
    </style>
  </defs>
  <path class="cls-1" d="m20.72,5.99c.88-.88.88-2.3,0-3.18-.85-.85-2.33-.85-3.18,0L3.93,16.42l-.18-.18c-.29-.29-.77-.29-1.06,0s-.29.77,0,1.06l.71.71,2.12,2.12.71.71c.15.15.34.22.53.22s.38-.07.53-.22c.29-.29.29-.77,0-1.06l-.18-.18,3.18-3.18,1.77,1.77-.18.18c-.29.29-.29.77,0,1.06.15.15.34.22.53.22s.38-.07.53-.22l1.77-1.77,1.06-1.06s0,0,0,0l.71-.71c.29-.29.29-.77,0-1.06s-.77-.29-1.06,0l-.18.18-1.77-1.77,7.25-7.25Zm-2.12-2.12c.28-.28.78-.28,1.06,0s.29.77,0,1.06l-7.78,7.78s0,0,0,0,0,0,0,0l-1.59,1.59-1.06-1.06L18.6,3.87Zm-13.61,13.61l1.06-1.06,1.06,1.06-1.06,1.06-1.06-1.06Zm3.18-1.06l-1.06-1.06,1.06-1.06,1.06,1.06-1.06,1.06Zm6.01-.35l-.53.53-.53.53-1.77-1.77,1.06-1.06,1.77,1.77Z"/>
</svg>