<?xml version="1.0" encoding="UTF-8"?>
<svg id="book" xmlns="http://www.w3.org/2000/svg" viewBox="0 0 24 24">
  <defs>
    <style>
      .cls-1 {
        stroke-width: 0px;
      }
    </style>
  </defs>
  <path class="cls-1" d="m19,2.25H6.5c-1.79,0-3.25,1.46-3.25,3.25v12.5c0,.06.02.11.03.17-.01.11-.03.22-.03.33,0,1.79,1.46,3.25,3.25,3.25h12.5c.96,0,1.75-.79,1.75-1.75V4c0-.96-.79-1.75-1.75-1.75Zm.25,1.75v11.25h-10.5V3.75h10.25c.14,0,.25.11.25.25Zm-12.75-.25h.75v11.5h-.75c-.65,0-1.24.19-1.75.52V5.5c0-.96.79-1.75,1.75-1.75Zm12.75,16.25c0,.14-.11.25-.25.25H6.5c-.96,0-1.75-.79-1.75-1.75s.79-1.75,1.75-1.75h12.75v3.25Z"/>
  <path class="cls-1" d="m13.66,12.67c.11.05.22.08.34.08s.23-.03.34-.08c1.49-.74,2.41-2.24,2.41-3.91v-.76c0-.24-.11-.46-.31-.61-.19-.14-.44-.18-.67-.11-.1.03-.31.08-.53,0-.37-.13-.52-.5-.54-.55-.11-.3-.39-.49-.7-.49s-.6.2-.7.49c-.02.04-.16.42-.54.55-.22.07-.43.03-.53,0-.23-.07-.48-.03-.67.11-.19.14-.31.37-.31.61v.76c0,1.67.93,3.16,2.41,3.91Zm-.42-3.96c.31-.1.56-.26.76-.43.2.17.45.33.76.43.16.05.32.09.49.11-.02.94-.48,1.8-1.25,2.32-.77-.52-1.23-1.37-1.25-2.32.17-.02.33-.05.49-.11Z"/>
</svg>