<?xml version="1.0" encoding="UTF-8"?>
<svg id="case" xmlns="http://www.w3.org/2000/svg" viewBox="0 0 24 24">
  <defs>
    <style>
      .cls-1 {
        stroke-width: 0px;
      }
    </style>
  </defs>
  <path class="cls-1" d="m19.75,12.37v-4.54c0-.73-.29-1.43-.81-1.94l-1.83-1.83c-.52-.52-1.21-.81-1.94-.81H7c-1.52,0-2.75,1.23-2.75,2.75v6.37c-1.15.33-2,1.38-2,2.63v3c0,1.52,1.23,2.75,2.75,2.75h14c1.52,0,2.75-1.23,2.75-2.75v-3c0-1.25-.85-2.3-2-2.63Zm-1.87-5.42c.09.09.15.2.2.31h-2.34v-2.34c.11.06.22.12.31.2l1.83,1.83Zm-10.88-2.19h7.25v3.25c0,.41.34.75.75.75h3.25v3.5h-.42c-.73,0-1.42.29-1.94.81l-.83.83c-.23.23-.55.37-.88.37h-4.34c-.33,0-.65-.13-.88-.37l-.83-.83c-.52-.52-1.21-.81-1.94-.81h-.42v-6.25c0-.69.56-1.25,1.25-1.25Zm13.25,13.25c0,.69-.56,1.25-1.25,1.25H5c-.69,0-1.25-.56-1.25-1.25v-3c0-.69.56-1.25,1.25-1.25h1.17c.33,0,.65.13.88.37l.83.83c.52.52,1.21.81,1.94.81h4.34c.73,0,1.42-.29,1.94-.81l.83-.83c.23-.23.55-.37.88-.37h1.17c.69,0,1.25.56,1.25,1.25v3Z"/>
  <path class="cls-1" d="m8,7.75h4c.41,0,.75-.34.75-.75s-.34-.75-.75-.75h-4c-.41,0-.75.34-.75.75s.34.75.75.75Z"/>
  <path class="cls-1" d="m8,10.75h5c.41,0,.75-.34.75-.75s-.34-.75-.75-.75h-5c-.41,0-.75.34-.75.75s.34.75.75.75Z"/>
</svg>