<?xml version="1.0" encoding="UTF-8"?>
<svg id="cctv" xmlns="http://www.w3.org/2000/svg" viewBox="0 0 24 24">
  <defs>
    <style>
      .cls-1 {
        stroke-width: 0px;
      }
    </style>
  </defs>
  <path class="cls-1" d="m20.66,10.02l.88-.93c.18-.19.25-.46.18-.71-.07-.25-.26-.45-.51-.53l-11.48-3.49c-1.45-.44-2.99.38-3.43,1.83l-.29.96c-.28.92.24,1.9,1.17,2.18l.24.07-.36,1.2c-.14.45-.09.92.13,1.33.22.41.59.71,1.04.85l2.92.89-.43,1.41c-.16.53-.64.89-1.2.89h-1.89c-.33-1.15-1.38-2-2.63-2h-1c-.96,0-1.75.79-1.75,1.75v2c0,.96.79,1.75,1.75,1.75h1c1.25,0,2.3-.85,2.63-2h1.89c1.22,0,2.28-.78,2.63-1.95l.43-1.41,3.3,1c.17.05.34.08.51.08.51,0,.99-.24,1.32-.62.13.06.25.13.38.17.27.08.53.12.8.12,1.18,0,2.27-.77,2.63-1.95.21-.7.14-1.45-.21-2.09-.16-.31-.39-.58-.64-.8Zm-15.66,7.96h-1c-.14,0-.25-.11-.25-.25v-2c0-.14.11-.25.25-.25h1c.69,0,1.25.56,1.25,1.25s-.56,1.25-1.25,1.25Zm2.74-11.34c.16-.54.66-.89,1.2-.89.12,0,.24.02.36.05l10.32,3.13-1.92,2.03-2.13-.65-6.99-2.12s0,0,0,0l-.95-.29c-.13-.04-.21-.18-.17-.31l.29-.96Zm8.57,7.04l-7.66-2.32c-.08-.02-.12-.08-.15-.12-.02-.03-.04-.1-.02-.19l.36-1.2,6.74,2.05,1.39.42-.36,1.19c-.04.13-.17.21-.31.17Zm3.76-1.21c-.2.66-.9,1.03-1.56.83-.08-.02-.16-.06-.23-.1l.3-1,1.03-1.09c.15.11.27.24.36.41.16.29.19.63.09.95Z"/>
</svg>