<?xml version="1.0" encoding="UTF-8"?>
<svg id="courthouse" xmlns="http://www.w3.org/2000/svg" viewBox="0 0 24 24">
  <defs>
    <style>
      .cls-1 {
        stroke-width: 0px;
      }
    </style>
  </defs>
  <path class="cls-1" d="m20,10.75c.96,0,1.75-.79,1.75-1.75v-1.35c0-.69-.41-1.32-1.04-1.6l-8.41-3.74c-.19-.09-.42-.09-.61,0L3.29,6.05c-.63.28-1.04.91-1.04,1.6v1.35c0,.96.79,1.75,1.75,1.75h.25v6.62c-1.15.33-2,1.38-2,2.63,0,.96.79,1.75,1.75,1.75h16c.96,0,1.75-.79,1.75-1.75,0-1.25-.85-2.3-2-2.63v-6.62h.25Zm-16.25-1.75v-1.35c0-.1.06-.19.15-.23l8.1-3.6,8.1,3.6c.09.04.15.13.15.23v1.35c0,.14-.11.25-.25.25H4c-.14,0-.25-.11-.25-.25Zm6,8.25v-6.5h4.5v6.5h-4.5Zm-1.5-6.5v6.5h-2.5v-6.5h2.5Zm12,9.25c0,.14-.11.25-.25.25H4c-.14,0-.25-.11-.25-.25,0-.69.56-1.25,1.25-1.25h14c.69,0,1.25.56,1.25,1.25Zm-2-2.75h-2.5v-6.5h2.5v6.5Z"/>
  <path class="cls-1" d="m12,8.75c.96,0,1.75-.79,1.75-1.75s-.79-1.75-1.75-1.75-1.75.79-1.75,1.75.79,1.75,1.75,1.75Zm0-2c.14,0,.25.11.25.25,0,.28-.5.28-.5,0,0-.14.11-.25.25-.25Z"/>
</svg>