<?xml version="1.0" encoding="UTF-8"?>
<svg id="feather_pen" data-name="feather pen" xmlns="http://www.w3.org/2000/svg" viewBox="0 0 24 24">
  <defs>
    <style>
      .cls-1 {
        stroke-width: 0px;
      }
    </style>
  </defs>
  <path class="cls-1" d="m21.7,2.73c-.09-.24-.3-.42-.55-.47-3.38-.69-6.82.61-8.76,3.3-2.37,3.29-1.33,6.97-1.1,7.67.04.11.11.21.18.29-.1.47-.18.94-.22,1.42-.04.43-.04.87-.04,1.32h-2.22c-2.07,0-3.75,1.68-3.75,3.75,0,.96.79,1.75,1.75,1.75h10c.96,0,1.75-.79,1.75-1.75,0-2.07-1.68-3.75-3.75-3.75h-2.28c0-.4,0-.79.03-1.18.05-.55.15-1.07.27-1.57,1.41-.42,2.59-1.07,3.51-1.96.85-.84,1.26-1.64,1.82-2.75.34-.67.72-1.42,1.3-2.41.6-1.01,1.26-2,1.96-2.93.15-.21.19-.48.1-.72Zm-4.45,17.27c0,.14-.11.25-.25.25H7c-.14,0-.25-.11-.25-.25,0-1.24,1.01-2.25,2.25-2.25h6c1.24,0,2.25,1.01,2.25,2.25Zm1.1-14.38c-.61,1.03-1.02,1.84-1.35,2.5-.53,1.05-.85,1.69-1.53,2.35-.51.5-1.14.91-1.86,1.23.57-1.33,1.31-2.42,1.97-3.22.26-.32.22-.79-.1-1.06-.32-.26-.79-.22-1.06.1-.84,1.02-1.52,2.11-2.04,3.24-.05-1.23.16-2.84,1.22-4.32,1.31-1.82,3.46-2.86,5.74-2.86.1,0,.21,0,.31,0-.45.66-.89,1.34-1.3,2.03Z"/>
</svg>