<?xml version="1.0" encoding="UTF-8"?>
<svg id="handcuffs" xmlns="http://www.w3.org/2000/svg" viewBox="0 0 24 24">
  <defs>
    <style>
      .cls-1 {
        stroke-width: 0px;
      }
    </style>
  </defs>
  <path class="cls-1" d="m5.11,6.43c-1.07,1.07-1.07,2.82,0,3.89.54.54,1.24.8,1.94.8s1.41-.27,1.95-.8c1.07-1.07,1.07-2.82,0-3.89-1.07-1.07-2.82-1.07-3.89,0Zm2.83,2.83c-.49.49-1.28.49-1.77,0-.49-.49-.49-1.28,0-1.77.24-.24.56-.37.88-.37s.64.12.88.37c.49.49.49,1.28,0,1.77Z"/>
  <path class="cls-1" d="m20.79,12.56c.58-.8.91-1.76.91-2.78,0-1.27-.49-2.46-1.39-3.36l-2.83-2.83c-1.67-1.67-4.28-1.82-6.13-.48l-.23-.23c-.68-.68-1.79-.68-2.47,0l-.75.75s-.12.04-.17.03h0c-1.92-.28-3.75.61-4.77,2.3-.9,1.48-.88,3.39.04,4.87.79,1.27,2.07,2.09,3.52,2.25.19.02.37.03.55.03,1.25,0,2.45-.49,3.35-1.39,1.06-1.06,1.56-2.57,1.34-4.05,0-.07,0-.12.02-.14l.76-.76c.68-.68.68-1.79,0-2.48l-.11-.11c1.25-.77,2.91-.62,4,.46l2.83,2.83c1.08,1.08,1.23,2.75.46,4l-.11-.11c-.68-.68-1.79-.68-2.47,0l-.75.75s-.12.04-.17.03h0c-1.92-.28-3.75.61-4.77,2.3-.9,1.48-.88,3.39.04,4.87.79,1.27,2.07,2.09,3.52,2.25.19.02.37.03.55.03,1.25,0,2.45-.49,3.35-1.39,1.06-1.06,1.56-2.57,1.34-4.05,0-.07,0-.12.02-.14l.76-.76c.68-.68.68-1.79,0-2.48l-.23-.23Zm-9.32-6.84l-.76.76c-.36.36-.52.87-.45,1.41.15,1.03-.18,2.04-.92,2.78s-1.68,1.05-2.67.93c-.99-.11-1.88-.68-2.42-1.56-.61-.99-.62-2.31-.02-3.3.62-1.03,1.67-1.62,2.81-1.62.15,0,.31.01.47.03.55.08,1.08-.09,1.45-.46l.75-.75c.1-.1.26-.1.35,0l1.41,1.41c.1.1.1.26,0,.35Zm8.49,8.49l-.76.76c-.36.36-.52.87-.45,1.41.15,1.03-.18,2.04-.92,2.78s-1.68,1.05-2.67.93c-.99-.11-1.88-.68-2.42-1.56-.61-.99-.62-2.31-.02-3.3.62-1.03,1.67-1.62,2.81-1.62.15,0,.31.01.47.03.55.08,1.08-.09,1.45-.46l.75-.75c.1-.1.26-.1.35,0l1.41,1.41c.1.1.1.26,0,.35Z"/>
  <path class="cls-1" d="m13.59,14.91c-.52.52-.81,1.21-.81,1.94s.29,1.42.81,1.94,1.24.8,1.95.8,1.41-.27,1.94-.8c1.07-1.07,1.07-2.82,0-3.89-1.07-1.07-2.82-1.07-3.89,0Zm2.83,2.83c-.49.49-1.28.49-1.77,0-.24-.24-.37-.55-.37-.88s.13-.65.37-.88.56-.37.88-.37.64.12.88.37c.49.49.49,1.28,0,1.77Z"/>
</svg>