<?xml version="1.0" encoding="UTF-8"?>
<svg id="judge" xmlns="http://www.w3.org/2000/svg" viewBox="0 0 24 24">
  <defs>
    <style>
      .cls-1 {
        stroke-width: 0px;
      }
    </style>
  </defs>
  <path class="cls-1" d="m21,13.25h-9.25v-.25c0-2.07-1.68-3.75-3.75-3.75s-3.75,1.68-3.75,3.75v.25h-1.25c-.41,0-.75.34-.75.75s.34.75.75.75h1.25v4.25c0,1.52,1.23,2.75,2.75,2.75h10c1.52,0,2.75-1.23,2.75-2.75v-4.25h1.25c.41,0,.75-.34.75-.75s-.34-.75-.75-.75Zm-15.25-.25c0-1.24,1.01-2.25,2.25-2.25s2.25,1.01,2.25,2.25v.25h-4.5v-.25Zm12.5,6c0,.69-.56,1.25-1.25,1.25H7c-.69,0-1.25-.56-1.25-1.25v-4.25h12.5v4.25Z"/>
  <path class="cls-1" d="m14.63,12.71c.08.03.16.04.25.04h4c.37,0,.69-.27.74-.64.06-.37-.16-.72-.52-.83-.37-.12-.63-.47-.6-.84.02-.33.26-.62.6-.73.35-.11.57-.46.52-.83-.06-.37-.37-.64-.74-.64h-4c-.08,0-.16.01-.23.04-.86.28-1.5,1.02-1.62,1.88-.15,1.09.52,2.16,1.6,2.54Zm.39-2.96h2.11c-.07.19-.11.39-.12.59-.02.32.02.62.12.91h-2.1c-.35-.17-.56-.53-.51-.87.04-.27.23-.51.5-.63Z"/>
  <path class="cls-1" d="m8,8.75c1.52,0,2.75-1.23,2.75-2.75s-1.23-2.75-2.75-2.75-2.75,1.23-2.75,2.75,1.23,2.75,2.75,2.75Zm0-4c.69,0,1.25.56,1.25,1.25s-.56,1.25-1.25,1.25-1.25-.56-1.25-1.25.56-1.25,1.25-1.25Z"/>
</svg>