<?xml version="1.0" encoding="UTF-8"?>
<svg id="stamp" xmlns="http://www.w3.org/2000/svg" viewBox="0 0 24 24">
  <defs>
    <style>
      .cls-1 {
        stroke-width: 0px;
      }
    </style>
  </defs>
  <path class="cls-1" d="m17.03,8.74s.02,0,.02,0c.03,0,.06-.02.09-.03.06-.01.13-.02.18-.05.02,0,.03-.02.05-.03.07-.04.13-.09.18-.15,0,0,0,0,0-.01.06-.07.1-.15.13-.24,0,0,0,0,0,0,.03-.07.05-.15.05-.23,0-.03-.01-.05-.01-.07-.07-.88-.46-1.71-1.08-2.34l-2.24-2.24c-.6-.6-1.36-.95-2.18-1.05-.07-.02-.15-.05-.23-.05-.03,0-.05.01-.08.02-.06,0-.11-.02-.16-.02h-5.76c-2.07,0-3.75,1.68-3.75,3.75v12c0,2.07,1.68,3.75,3.75,3.75h5c.41,0,.75-.34.75-.75s-.34-.75-.75-.75h-5c-1.24,0-2.25-1.01-2.25-2.25V6c0-1.24,1.01-2.25,2.25-2.25h5.25v3.25c0,.96.79,1.75,1.75,1.75h4s.02,0,.03,0Zm-4.28-1.74v-3.01c.22.11.42.24.6.42l2.24,2.24c.18.18.32.38.42.6h-3.01c-.14,0-.25-.11-.25-.25Z"/>
  <path class="cls-1" d="m6,8.75h3c.41,0,.75-.34.75-.75s-.34-.75-.75-.75h-3c-.41,0-.75.34-.75.75s.34.75.75.75Z"/>
  <path class="cls-1" d="m11,11.25h-5c-.41,0-.75.34-.75.75s.34.75.75.75h5c.41,0,.75-.34.75-.75s-.34-.75-.75-.75Z"/>
  <path class="cls-1" d="m11,15.25h-5c-.41,0-.75.34-.75.75s.34.75.75.75h5c.41,0,.75-.34.75-.75s-.34-.75-.75-.75Z"/>
  <path class="cls-1" d="m19.86,16.4l.47-2.81c.14-.83-.1-1.68-.64-2.33-.55-.64-1.34-1.01-2.19-1.01s-1.64.37-2.19,1.01c-.54.64-.78,1.49-.64,2.32l.47,2.81c-1.09.36-1.89,1.38-1.89,2.6,0,.96.79,1.75,1.75,1.75h5c.96,0,1.75-.79,1.75-1.75,0-1.21-.8-2.24-1.89-2.6Zm-3.4-4.17c.52-.62,1.57-.62,2.09,0,.26.31.37.71.31,1.11l-.48,2.91h-1.73l-.49-2.91c-.07-.4.04-.8.31-1.11Zm3.54,7.02h-5c-.14,0-.25-.11-.25-.25,0-.69.56-1.25,1.25-1.25h3c.69,0,1.25.56,1.25,1.25,0,.14-.11.25-.25.25Z"/>
</svg>