<?xml version="1.0" encoding="UTF-8"?>
<svg id="typewriter" xmlns="http://www.w3.org/2000/svg" viewBox="0 0 24 24">
  <defs>
    <style>
      .cls-1 {
        stroke-width: 0px;
      }
    </style>
  </defs>
  <path class="cls-1" d="m21.61,17.46l-1.44-4.33c-.35-1.06-1.31-1.79-2.42-1.86v-2.52s1.5,0,1.5,0v.25c0,.41.34.75.75.75s.75-.34.75-.75v-2c0-.41-.34-.75-.75-.75s-.75.34-.75.75v.25h-1.5v-.84c0-.47-.18-.91-.51-1.24l-1.41-1.41c-.33-.33-.77-.51-1.24-.51h-6.59c-.96,0-1.75.79-1.75,1.75v2.25h-1.5v-.25c0-.41-.34-.75-.75-.75s-.75.34-.75.75v2c0,.41.34.75.75.75s.75-.34.75-.75v-.25h1.5v2.52c-1.1.08-2.06.8-2.42,1.86l-1.44,4.33c-.09.28-.14.57-.14.87v.68c0,1.52,1.23,2.75,2.75,2.75h14c1.52,0,2.75-1.23,2.75-2.75v-.68c0-.29-.05-.59-.14-.87ZM7.75,5c0-.14.11-.25.25-.25h6.59c.07,0,.13.03.18.07l1.41,1.41s.07.11.07.18v.84s-8.5,0-8.5,0v-2.25Zm8.5,3.75v2.5s-8.5,0-8.5,0v-2.5h8.5Zm4,10.25c0,.69-.56,1.25-1.25,1.25H5c-.69,0-1.25-.56-1.25-1.25v-.68c0-.13.02-.27.06-.39l1.44-4.33c.17-.51.65-.85,1.19-.85h11.12c.54,0,1.02.34,1.19.85l1.44,4.32c.04.13.06.26.06.4v.68Z"/>
  <path class="cls-1" d="m18,17.25H6c-.41,0-.75.34-.75.75s.34.75.75.75h12c.41,0,.75-.34.75-.75s-.34-.75-.75-.75Z"/>
  <path class="cls-1" d="m7.02,15.75c.41,0,.75-.34.75-.75s-.34-.75-.75-.75h-.01c-.41,0-.74.34-.74.75s.34.75.75.75Z"/>
  <path class="cls-1" d="m10.02,15.75c.41,0,.75-.34.75-.75s-.34-.75-.75-.75h-.01c-.41,0-.74.34-.74.75s.34.75.75.75Z"/>
  <path class="cls-1" d="m14.02,15.75c.41,0,.75-.34.75-.75s-.34-.75-.75-.75h-.01c-.41,0-.74.34-.74.75s.34.75.75.75Z"/>
  <path class="cls-1" d="m17.02,15.75c.41,0,.75-.34.75-.75s-.34-.75-.75-.75h-.01c-.41,0-.74.34-.74.75s.34.75.75.75Z"/>
</svg>