<?xml version="1.0" encoding="UTF-8"?>
<svg id="witness" xmlns="http://www.w3.org/2000/svg" viewBox="0 0 24 24">
  <defs>
    <style>
      .cls-1 {
        stroke-width: 0px;
      }
    </style>
  </defs>
  <path class="cls-1" d="m20,13.25h-3.25v-.25c0-1.76-.97-3.28-2.4-4.1.85-.69,1.4-1.72,1.4-2.9,0-2.07-1.68-3.75-3.75-3.75s-3.75,1.68-3.75,3.75c0,1.17.55,2.21,1.4,2.9-1.34.77-2.26,2.16-2.37,3.79l-1.24-3.11c-.05-.12,0-.26.12-.32l1.18-.59c.37-.19.52-.64.34-1.01-.18-.37-.64-.52-1.01-.33l-1.18.59c-.81.4-1.18,1.38-.84,2.21l1.25,3.12h-1.89c-.41,0-.75.34-.75.75s.34.75.75.75h.43l1.43,5.01c.34,1.17,1.42,1.99,2.64,1.99h6.98c1.22,0,2.31-.82,2.64-1.99l1.43-5.01h.43c.41,0,.75-.34.75-.75s-.34-.75-.75-.75Zm-10.25-7.25c0-1.24,1.01-2.25,2.25-2.25s2.25,1.01,2.25,2.25-1.01,2.25-2.25,2.25-2.25-1.01-2.25-2.25Zm-1,7c0-1.79,1.46-3.25,3.25-3.25s3.25,1.46,3.25,3.25v.25h-6.5v-.25Zm7.94,6.34c-.15.53-.65.91-1.2.91h-1.28l1.46-2.92c.19-.37.04-.82-.34-1.01-.37-.18-.82-.04-1.01.34l-1.79,3.58h-1.07l-1.79-3.58c-.18-.37-.64-.52-1.01-.34-.37.19-.52.64-.34,1.01l1.46,2.92h-1.28c-.56,0-1.05-.37-1.2-.91l-1.31-4.59h12.01l-1.31,4.59Z"/>
</svg>